<svg width="300" height="300" viewBox="0 0 300 300" xmlns="http://www.w3.org/2000/svg">
  <defs>
    <!-- Gradientes fluidos -->
    <linearGradient id="grad1" x1="0%" y1="0%" x2="100%" y2="100%">
      <stop offset="0%" stop-color="#6C63FF"/>
      <stop offset="100%" stop-color="#03A9F4"/>
    </linearGradient>
    <linearGradient id="grad2" x1="100%" y1="0%" x2="0%" y2="100%">
      <stop offset="0%" stop-color="#FF4081"/>
      <stop offset="100%" stop-color="#FFEB3B"/>
    </linearGradient>

    <!-- Filtro de brilho para nós -->
    <filter id="glow" x="-50%" y="-50%" width="200%" height="200%">
      <feGaussianBlur in="SourceGraphic" stdDeviation="4" result="blur"/>
      <feMerge>
        <feMergeNode in="blur"/>
        <feMergeNode in="SourceGraphic"/>
      </feMerge>
    </filter>
  </defs>

  <!-- Primeiro blob fluido -->
  <path
    d="M60,30
       C140,20 260,80 240,160
       C220,260 100,240 40,180
       C0,120 20,40 60,30Z"
    fill="url(#grad1)"
    fill-opacity="0.8"
  />

  <!-- Segundo blob fluido sobreposto -->
  <path
    d="M200,50
       C260,80 280,180 180,240
       C100,260 60,160 100,100
       C130,60 170,40 200,50Z"
    fill="url(#grad2)"
    fill-opacity="0.7"
  />

  <!-- Linhas de conexão -->
  <g stroke="#FFFFFF" stroke-opacity="0.7" stroke-width="1.5">
    <line x1="120" y1="100" x2="180" y2="140"/>
    <line x1="180" y1="140" x2="150" y2="200"/>
    <line x1="150" y1="200" x2="80" y2="180"/>
    <line x1="80"  y1="180" x2="70" y2="120"/>
    <line x1="70"  y1="120" x2="120" y2="100"/>
    <line x1="120" y1="100" x2="200" y2="100"/>
  </g>

  <!-- Nós com brilho -->
  <g filter="url(#glow)">
    <circle cx="120" cy="100" r="6" fill="#FFFFFF" fill-opacity="0.9"/>
    <circle cx="180" cy="140" r="6" fill="#FFFFFF" fill-opacity="0.9"/>
    <circle cx="150" cy="200" r="6" fill="#FFFFFF" fill-opacity="0.9"/>
    <circle cx="80"  cy="180" r="6" fill="#FFFFFF" fill-opacity="0.9"/>
    <circle cx="70"  cy="120" r="6" fill="#FFFFFF" fill-opacity="0.9"/>
    <circle cx="200" cy="100" r="6" fill="#FFFFFF" fill-opacity="0.9"/>
  </g>
</svg>
